<mxfile host="app.diagrams.net" modified="2024-03-19T10:00:00.000Z" agent="Mozilla/5.0" version="21.7.5" etag="your-etag">
<diagram id="architecture" name="Architecture">
<mxGraphModel dx="1422" dy="798" grid="1" gridSize="10" guides="1" tooltips="1" connect="1" arrows="1" fold="1" page="1" pageScale="1" pageWidth="850" pageHeight="1100">
<root>
<mxCell id="0"/>
<mxCell id="1" parent="0"/>

<!-- Frontend Components -->
<mxCell id="2" value="Frontend&#xa;(React + TypeScript)&#xa;- Vite Build System&#xa;- TailwindCSS Styling&#xa;- i18n Translations&#xa;- WebSocket Client" style="rounded=1;whiteSpace=wrap;html=1;fillColor=#dae8fc;strokeColor=#6c8ebf;" vertex="1" parent="1">
<mxGeometry x="320" y="40" width="160" height="100" as="geometry"/>
</mxCell>

<!-- Frontend Sub-Components -->
<mxCell id="21" value="UI Components&#xa;- Button&#xa;- Card&#xa;- Status Message&#xa;- Grounding Files&#xa;- History Panel" style="rounded=1;whiteSpace=wrap;html=1;fillColor=#dae8fc;strokeColor=#6c8ebf;" vertex="1" parent="1">
<mxGeometry x="120" y="40" width="160" height="100" as="geometry"/>
</mxCell>

<mxCell id="22" value="Audio Handling&#xa;- Audio Recorder&#xa;- Audio Player&#xa;- Audio Worklet&#xa;- Real-time Processing" style="rounded=1;whiteSpace=wrap;html=1;fillColor=#dae8fc;strokeColor=#6c8ebf;" vertex="1" parent="1">
<mxGeometry x="520" y="40" width="160" height="100" as="geometry"/>
</mxCell>

<!-- Frontend Connections -->
<mxCell id="23" value="Uses" style="endArrow=classic;html=1;rounded=0;" edge="1" parent="1" source="2" target="21">
<mxGeometry width="50" height="50" relative="1" as="geometry"/>
</mxCell>

<mxCell id="24" value="Uses" style="endArrow=classic;html=1;rounded=0;" edge="1" parent="1" source="2" target="22">
<mxGeometry width="50" height="50" relative="1" as="geometry"/>
</mxCell>

<!-- Backend Components -->
<mxCell id="3" value="Backend Core&#xa;(Python + Quart)&#xa;- WebSocket Handler&#xa;- Environment Config&#xa;- Authentication" style="rounded=1;whiteSpace=wrap;html=1;fillColor=#d5e8d4;strokeColor=#82b366;" vertex="1" parent="1">
<mxGeometry x="320" y="180" width="160" height="100" as="geometry"/>
</mxCell>

<mxCell id="31" value="RTMiddleTier&#xa;- System Messages&#xa;- Audio Processing&#xa;- Tool Management" style="rounded=1;whiteSpace=wrap;html=1;fillColor=#d5e8d4;strokeColor=#82b366;" vertex="1" parent="1">
<mxGeometry x="520" y="180" width="160" height="80" as="geometry"/>
</mxCell>

<mxCell id="32" value="RAG Tools&#xa;- Search Integration&#xa;- Document Processing&#xa;- Vector Operations" style="rounded=1;whiteSpace=wrap;html=1;fillColor=#d5e8d4;strokeColor=#82b366;" vertex="1" parent="1">
<mxGeometry x="120" y="180" width="160" height="80" as="geometry"/>
</mxCell>

<!-- Azure Services -->
<mxCell id="4" value="Azure OpenAI&#xa;(GPT-4 Realtime)" style="rounded=1;whiteSpace=wrap;html=1;fillColor=#ffe6cc;strokeColor=#d79b00;" vertex="1" parent="1">
<mxGeometry x="120" y="320" width="160" height="60" as="geometry"/>
</mxCell>

<mxCell id="5" value="Azure AI Search" style="rounded=1;whiteSpace=wrap;html=1;fillColor=#ffe6cc;strokeColor=#d79b00;" vertex="1" parent="1">
<mxGeometry x="320" y="320" width="160" height="60" as="geometry"/>
</mxCell>

<mxCell id="6" value="Azure Blob Storage" style="rounded=1;whiteSpace=wrap;html=1;fillColor=#ffe6cc;strokeColor=#d79b00;" vertex="1" parent="1">
<mxGeometry x="520" y="320" width="160" height="60" as="geometry"/>
</mxCell>

<!-- Connections -->
<mxCell id="7" value="WebSocket" style="endArrow=classic;startArrow=classic;html=1;rounded=0;" edge="1" parent="1" source="3" target="2">
<mxGeometry width="50" height="50" relative="1" as="geometry"/>
</mxCell>

<mxCell id="33" value="Manages" style="endArrow=classic;html=1;rounded=0;" edge="1" parent="1" source="3" target="31">
<mxGeometry width="50" height="50" relative="1" as="geometry"/>
</mxCell>

<mxCell id="34" value="Uses" style="endArrow=classic;html=1;rounded=0;" edge="1" parent="1" source="3" target="32">
<mxGeometry width="50" height="50" relative="1" as="geometry"/>
</mxCell>

<mxCell id="8" value="Voice/Text" style="endArrow=classic;html=1;rounded=0;" edge="1" parent="1" source="31" target="4">
<mxGeometry width="50" height="50" relative="1" as="geometry"/>
</mxCell>

<mxCell id="9" value="RAG Queries" style="endArrow=classic;html=1;rounded=0;" edge="1" parent="1" source="32" target="5">
<mxGeometry width="50" height="50" relative="1" as="geometry"/>
</mxCell>

<mxCell id="10" value="Document Storage" style="endArrow=classic;html=1;rounded=0;" edge="1" parent="1" source="5" target="6">
<mxGeometry width="50" height="50" relative="1" as="geometry"/>
</mxCell>

</root>
</mxGraphModel>
</diagram>
</mxfile>